<svg xmlns="http://www.w3.org/2000/svg" xmlns:xlink="http://www.w3.org/1999/xlink" width="258" zoomAndPan="magnify" viewBox="0 0 193.5 193.499992" height="258" preserveAspectRatio="xMidYMid meet" version="1.0"><defs><g/><clipPath id="4fe7bdfa1f"><path d="M 0 0 L 192.648438 0 L 192.648438 192.648438 L 0 192.648438 Z M 0 0 " clip-rule="nonzero"/></clipPath><clipPath id="d562a966ee"><path d="M 96.324219 0 C 43.125 0 0 43.125 0 96.324219 C 0 149.523438 43.125 192.648438 96.324219 192.648438 C 149.523438 192.648438 192.648438 149.523438 192.648438 96.324219 C 192.648438 43.125 149.523438 0 96.324219 0 Z M 96.324219 0 " clip-rule="nonzero"/></clipPath><clipPath id="d1b4968ff0"><path d="M 14.980469 14.980469 L 177.664062 14.980469 L 177.664062 177.664062 L 14.980469 177.664062 Z M 14.980469 14.980469 " clip-rule="nonzero"/></clipPath><clipPath id="8364ee0ddb"><path d="M 96.324219 14.980469 C 51.398438 14.980469 14.980469 51.398438 14.980469 96.324219 C 14.980469 141.246094 51.398438 177.664062 96.324219 177.664062 C 141.246094 177.664062 177.664062 141.246094 177.664062 96.324219 C 177.664062 51.398438 141.246094 14.980469 96.324219 14.980469 Z M 96.324219 14.980469 " clip-rule="nonzero"/></clipPath></defs><g clip-path="url(#4fe7bdfa1f)"><g clip-path="url(#d562a966ee)"><path fill="#fcd842" d="M 0 0 L 192.648438 0 L 192.648438 192.648438 L 0 192.648438 Z M 0 0 " fill-opacity="1" fill-rule="nonzero"/></g></g><g clip-path="url(#d1b4968ff0)"><g clip-path="url(#8364ee0ddb)"><path fill="#ffaa00" d="M 14.980469 14.980469 L 177.664062 14.980469 L 177.664062 177.664062 L 14.980469 177.664062 Z M 14.980469 14.980469 " fill-opacity="1" fill-rule="nonzero"/></g></g><g fill="#ffffff" fill-opacity="1"><g transform="translate(35.416561, 115.929133)"><g><path d="M 3.789062 0.0664062 L 6.339844 0.0664062 L 6.730469 0 L 8.039062 0.0664062 L 9.605469 -0.0664062 L 10.0625 -0.128906 L 10.519531 -0.0664062 L 11.175781 -0.523438 L 11.4375 -1.371094 L 11.566406 -2.15625 L 11.761719 -2.941406 L 11.695312 -3.398438 L 11.761719 -3.855469 L 11.761719 -4.246094 L 11.828125 -4.703125 L 12.21875 -5.488281 L 12.285156 -5.945312 L 12.417969 -6.730469 L 12.546875 -7.644531 L 12.546875 -8.039062 L 12.613281 -8.953125 L 12.742188 -9.410156 L 12.675781 -9.867188 L 12.9375 -10.71875 L 13.136719 -11.5 L 13.332031 -12.480469 L 13.527344 -13.332031 L 13.460938 -13.722656 L 13.722656 -14.441406 L 13.789062 -14.769531 L 13.984375 -15.683594 L 14.113281 -16.53125 L 14.246094 -17.1875 L 14.441406 -18.230469 L 16.011719 -18.101562 L 17.511719 -18.230469 L 19.867188 -18.230469 L 20.585938 -18.167969 L 21.238281 -18.167969 L 21.628906 -18.949219 L 21.824219 -19.867188 L 22.085938 -20.714844 L 22.085938 -21.5 L 22.285156 -22.347656 L 22.347656 -22.804688 L 22.414062 -23.199219 L 22.609375 -23.984375 L 22.609375 -24.308594 L 22.871094 -25.222656 L 22.871094 -25.746094 L 23.066406 -26.269531 L 23.132812 -26.792969 L 22.9375 -27.511719 L 22.023438 -27.578125 L 21.304688 -27.578125 L 20.386719 -27.511719 L 19.605469 -27.445312 L 16.730469 -27.511719 L 16.011719 -27.578125 L 16.207031 -28.230469 L 16.335938 -29.015625 L 16.335938 -29.472656 L 16.402344 -29.863281 L 16.53125 -30.320312 L 16.53125 -30.84375 L 16.792969 -31.367188 L 17.054688 -32.933594 L 17.054688 -33.261719 L 17.25 -34.175781 L 17.449219 -35.15625 L 17.511719 -35.613281 L 17.578125 -36.332031 L 17.710938 -36.855469 L 18.363281 -36.855469 L 21.042969 -36.921875 L 22.742188 -36.988281 L 23.65625 -36.921875 L 24.898438 -36.789062 L 25.941406 -36.921875 L 26.53125 -36.855469 L 27.121094 -37.183594 L 27.316406 -38.554688 L 27.578125 -39.730469 L 27.578125 -40.1875 L 27.640625 -40.582031 L 27.839844 -41.429688 L 28.035156 -42.542969 L 28.035156 -42.867188 L 28.164062 -43.71875 L 28.164062 -44.4375 L 28.296875 -44.894531 L 28.097656 -45.417969 L 27.25 -45.679688 L 26.464844 -45.679688 L 25.421875 -45.742188 L 17.773438 -45.742188 L 16.074219 -45.808594 L 13.722656 -45.875 L 10.519531 -45.742188 L 9.738281 -45.417969 L 9.605469 -44.632812 L 9.539062 -44.175781 L 9.605469 -43.390625 L 9.476562 -43.0625 L 9.34375 -42.214844 L 9.082031 -41.039062 L 9.082031 -40.515625 L 8.820312 -40.058594 L 8.757812 -39.339844 L 8.691406 -38.488281 L 8.625 -37.96875 L 8.496094 -37.574219 L 8.300781 -36.726562 L 8.234375 -35.808594 L 8.039062 -35.417969 L 8.039062 -34.960938 L 7.710938 -33.914062 L 7.644531 -33.457031 L 7.644531 -33 L 7.582031 -32.542969 L 7.644531 -32.152344 L 7.515625 -31.300781 L 7.382812 -30.84375 L 7.253906 -29.929688 L 7.058594 -29.472656 L 6.925781 -28.558594 L 6.925781 -27.773438 L 6.730469 -26.988281 L 6.601562 -26.53125 L 6.339844 -25.746094 L 6.078125 -24.898438 L 6.011719 -24.046875 L 5.816406 -23.132812 L 5.816406 -22.675781 L 5.554688 -21.824219 L 5.292969 -19.996094 L 5.292969 -19.082031 L 5.097656 -18.625 L 4.964844 -17.644531 L 5.03125 -17.1875 L 4.835938 -16.140625 L 4.507812 -15.226562 L 4.378906 -14.375 L 4.378906 -13.460938 L 4.117188 -12.675781 L 4.117188 -12.21875 L 3.984375 -11.828125 L 3.984375 -11.304688 L 3.789062 -10.71875 L 3.726562 -9.800781 L 3.59375 -9.410156 L 3.59375 -8.820312 L 3.332031 -8.167969 L 3.070312 -7.253906 L 3.007812 -6.730469 L 2.941406 -5.882812 L 2.875 -5.425781 L 2.808594 -5.03125 L 2.546875 -4.507812 L 2.417969 -3.789062 L 2.351562 -3.332031 L 2.289062 -2.941406 L 2.351562 -2.027344 L 2.089844 -1.503906 L 2.089844 -0.785156 L 2.351562 -0.128906 L 3.136719 0 Z M 3.789062 0.0664062 "/></g></g></g><g fill="#ffffff" fill-opacity="1"><g transform="translate(59.267506, 115.929133)"><g><path d="M 8.625 0.128906 L 9.148438 0.0664062 L 10.128906 0 L 10.71875 -0.0664062 L 11.371094 0 L 11.566406 -0.589844 L 11.761719 -1.046875 L 11.828125 -1.828125 L 11.894531 -2.289062 L 11.894531 -2.679688 L 11.957031 -3.136719 L 12.023438 -3.984375 L 12.023438 -4.378906 L 12.15625 -4.835938 L 12.089844 -5.226562 L 12.285156 -6.144531 L 12.285156 -6.664062 L 12.417969 -7.058594 L 12.480469 -7.582031 L 12.742188 -8.953125 L 12.875 -9.476562 L 12.875 -10.847656 L 13.136719 -11.371094 L 13.265625 -12.285156 L 13.265625 -12.675781 L 13.394531 -13.59375 L 13.722656 -14.441406 L 13.722656 -15.550781 L 13.917969 -16.925781 L 13.984375 -17.449219 L 14.179688 -18.363281 L 14.3125 -18.753906 L 14.375 -19.015625 L 14.832031 -18.949219 L 15.09375 -18.6875 L 15.355469 -18.167969 L 15.488281 -17.644531 L 15.75 -17.121094 L 15.878906 -16.46875 L 16.074219 -15.550781 L 16.207031 -15.226562 L 16.273438 -14.3125 L 16.53125 -13.460938 L 16.664062 -12.613281 L 16.792969 -12.15625 L 17.054688 -11.371094 L 17.121094 -10.914062 L 17.511719 -9.738281 L 17.511719 -8.953125 L 17.773438 -8.300781 L 17.96875 -7.582031 L 18.035156 -7.121094 L 18.230469 -6.730469 L 18.230469 -6.273438 L 18.429688 -5.816406 L 18.558594 -4.964844 L 18.6875 -4.769531 L 18.886719 -4.246094 L 18.886719 -3.726562 L 19.277344 -2.746094 L 19.472656 -2.027344 L 19.605469 -1.699219 L 19.800781 -0.914062 L 19.929688 -0.589844 L 20.519531 0 L 20.910156 0.0664062 L 21.5 0 L 22.023438 0 L 22.742188 -0.0664062 L 23.589844 -0.0664062 L 25.289062 -0.261719 L 26.660156 -0.457031 L 27.511719 -0.457031 L 28.230469 -0.589844 L 28.558594 -0.652344 L 28.753906 -1.503906 L 28.296875 -2.746094 L 28.164062 -3.332031 L 28.097656 -3.789062 L 28.035156 -4.574219 L 27.578125 -5.683594 L 27.445312 -6.601562 L 26.726562 -8.953125 L 26.597656 -9.800781 L 26.269531 -10.78125 L 26.269531 -11.175781 L 26.007812 -12.023438 L 25.878906 -12.546875 L 25.679688 -13.003906 L 25.550781 -13.917969 L 25.421875 -14.3125 L 25.222656 -15.160156 L 25.027344 -15.550781 L 24.898438 -16.402344 L 24.832031 -16.925781 L 24.570312 -17.316406 L 24.441406 -18.167969 L 24.441406 -18.753906 L 24.113281 -19.734375 L 23.917969 -20.257812 L 23.917969 -20.847656 L 24.375 -20.910156 L 25.289062 -21.367188 L 26.597656 -22.21875 L 27.511719 -23.199219 L 27.839844 -23.523438 L 28.558594 -24.375 L 28.753906 -24.765625 L 29.277344 -25.617188 L 29.535156 -26.203125 L 29.734375 -26.660156 L 30.320312 -27.511719 L 30.648438 -28.296875 L 30.84375 -28.753906 L 30.976562 -29.144531 L 31.105469 -29.601562 L 31.367188 -30.386719 L 31.5625 -31.039062 L 31.695312 -32.085938 L 31.890625 -33.132812 L 31.890625 -33.589844 L 31.824219 -34.570312 L 31.890625 -35.027344 L 32.085938 -35.941406 L 32.085938 -36.464844 L 31.890625 -37.707031 L 31.890625 -38.164062 L 31.757812 -39.40625 L 31.5625 -40.449219 L 31.105469 -41.363281 L 30.648438 -42.148438 L 30.386719 -42.476562 L 30.058594 -42.867188 L 29.796875 -43.128906 L 29.015625 -43.585938 L 28.6875 -43.78125 L 28.296875 -43.980469 L 27.707031 -44.371094 L 27.25 -44.5 L 26.660156 -44.761719 L 25.941406 -45.089844 L 25.421875 -45.21875 L 24.375 -45.21875 L 23.65625 -45.351562 L 22.675781 -45.417969 L 21.824219 -45.546875 L 21.238281 -45.546875 L 20.257812 -45.679688 L 19.734375 -45.808594 L 19.082031 -45.742188 L 18.625 -45.679688 L 15.8125 -45.679688 L 11.894531 -45.742188 L 10.976562 -45.742188 L 10.324219 -45.613281 L 9.867188 -45.089844 L 9.605469 -44.761719 L 9.671875 -44.042969 L 9.410156 -43.519531 L 9.410156 -43 L 9.34375 -42.542969 L 9.28125 -42.019531 L 9.019531 -40.1875 L 8.820312 -39.144531 L 8.625 -38.359375 L 8.496094 -37.902344 L 8.496094 -37.507812 L 8.429688 -36.660156 L 8.429688 -36.269531 L 8.363281 -35.875 L 8.167969 -34.960938 L 7.972656 -33.914062 L 7.777344 -33 L 7.710938 -32.609375 L 7.644531 -31.695312 L 7.382812 -30.910156 L 7.320312 -30.515625 L 7.320312 -30.058594 L 7.253906 -29.667969 L 7.121094 -28.816406 L 7.058594 -28.359375 L 6.992188 -27.96875 L 6.992188 -27.511719 L 6.664062 -26.140625 L 6.664062 -25.617188 L 6.535156 -24.703125 L 6.402344 -23.851562 L 6.339844 -23.460938 L 6.207031 -22.742188 L 6.078125 -22.285156 L 6.078125 -21.890625 L 5.882812 -21.5 L 5.75 -21.042969 L 5.683594 -20.257812 L 5.75 -19.867188 L 5.621094 -19.472656 L 5.292969 -19.015625 L 5.292969 -18.429688 L 5.226562 -17.90625 L 5.164062 -17.449219 L 4.902344 -16.53125 L 4.902344 -16.011719 L 4.835938 -15.03125 L 4.703125 -14.375 L 4.703125 -13.789062 L 4.378906 -12.613281 L 4.378906 -11.632812 L 4.117188 -11.109375 L 4.183594 -10.585938 L 4.117188 -10.128906 L 3.984375 -9.605469 L 3.921875 -8.691406 L 3.726562 -8.167969 L 3.789062 -7.710938 L 3.59375 -7.1875 L 3.59375 -6.730469 L 3.398438 -5.816406 L 3.332031 -5.359375 L 3.332031 -4.964844 L 3.136719 -4.507812 L 3.136719 -4.050781 L 3.007812 -3.660156 L 3.007812 -3.203125 L 2.941406 -2.484375 L 2.875 -1.828125 L 2.679688 -1.175781 L 2.679688 -0.589844 L 2.808594 -0.195312 L 3.398438 -0.0664062 L 5.425781 0.0664062 L 6.273438 0.0664062 Z M 17.121094 -26.792969 L 16.011719 -26.921875 L 16.074219 -27.445312 L 16.011719 -27.902344 L 16.074219 -28.359375 L 16.273438 -29.40625 L 16.402344 -29.996094 L 16.335938 -30.582031 L 16.53125 -31.171875 L 16.664062 -32.152344 L 16.664062 -32.609375 L 16.859375 -33.652344 L 16.992188 -34.175781 L 17.054688 -35.027344 L 17.121094 -36.007812 L 17.25 -37.050781 L 17.449219 -37.507812 L 17.644531 -38.226562 L 18.230469 -38.425781 L 19.800781 -38.359375 L 21.238281 -38.164062 L 21.824219 -37.835938 L 22.285156 -37.378906 L 22.609375 -36.789062 L 22.804688 -35.417969 L 22.871094 -33.980469 L 22.804688 -32.933594 L 22.609375 -32.414062 L 22.609375 -31.890625 L 22.152344 -30.976562 L 22.085938 -30.582031 L 21.957031 -30.058594 L 21.628906 -29.210938 L 21.171875 -28.816406 L 20.910156 -28.425781 L 20.453125 -27.902344 L 19.996094 -27.640625 L 19.34375 -27.25 L 18.949219 -26.988281 L 18.167969 -26.792969 Z M 17.121094 -26.792969 "/></g></g></g><g fill="#ffffff" fill-opacity="1"><g transform="translate(89.979677, 115.929133)"><g><path d="M 9.605469 0.0664062 L 10.128906 0 L 11.175781 -0.0664062 L 12.546875 -0.0664062 L 12.9375 -0.128906 L 13.789062 -0.0664062 L 14.832031 -0.128906 L 21.042969 -0.128906 L 21.238281 -0.847656 L 21.367188 -1.4375 L 21.433594 -2.546875 L 21.628906 -3.527344 L 21.695312 -3.984375 L 21.824219 -4.378906 L 21.957031 -4.835938 L 21.957031 -5.683594 L 22.21875 -7.121094 L 22.285156 -7.644531 L 22.414062 -8.363281 L 22.480469 -8.625 L 22.542969 -9.148438 L 22.085938 -9.34375 L 20.257812 -9.28125 L 18.820312 -9.34375 L 17.90625 -9.410156 L 14.050781 -9.410156 L 13.136719 -9.539062 L 12.875 -9.800781 L 12.875 -10.324219 L 13.136719 -12.023438 L 13.332031 -13.199219 L 13.460938 -13.65625 L 13.527344 -14.3125 L 13.65625 -14.898438 L 13.855469 -15.550781 L 14.113281 -17.382812 L 14.3125 -18.230469 L 14.574219 -18.949219 L 15.160156 -18.949219 L 16.011719 -19.015625 L 16.730469 -19.015625 L 17.839844 -18.949219 L 19.472656 -19.015625 L 20.0625 -19.015625 L 21.042969 -19.082031 L 21.695312 -19.082031 L 21.824219 -19.210938 L 21.957031 -20.128906 L 22.152344 -21.171875 L 22.285156 -22.085938 L 22.480469 -22.609375 L 22.480469 -23.066406 L 22.675781 -24.046875 L 22.804688 -24.503906 L 23.003906 -25.421875 L 23.132812 -26.140625 L 23.132812 -26.660156 L 23.265625 -27.445312 L 22.871094 -27.96875 L 22.347656 -28.097656 L 20.648438 -28.097656 L 19.40625 -27.96875 L 17.121094 -28.035156 L 15.945312 -28.035156 L 16.074219 -29.210938 L 16.273438 -29.863281 L 16.207031 -30.386719 L 16.335938 -30.84375 L 16.53125 -31.757812 L 16.664062 -32.671875 L 16.859375 -33.914062 L 16.859375 -34.4375 L 17.054688 -34.832031 L 17.054688 -35.746094 L 17.121094 -36.203125 L 17.316406 -36.988281 L 18.886719 -37.050781 L 23.132812 -37.050781 L 23.917969 -37.117188 L 26.660156 -37.117188 L 27.316406 -37.183594 L 27.511719 -38.03125 L 27.578125 -38.425781 L 27.839844 -39.339844 L 27.839844 -39.863281 L 28.035156 -40.84375 L 28.097656 -41.234375 L 28.164062 -41.691406 L 28.359375 -42.148438 L 28.359375 -42.542969 L 28.492188 -44.175781 L 28.492188 -44.566406 L 28.6875 -45.285156 L 28.359375 -45.742188 L 27.773438 -45.808594 L 27.121094 -45.875 L 26.53125 -45.808594 L 25.09375 -45.808594 L 23.199219 -45.742188 L 22.675781 -45.808594 L 21.171875 -45.875 L 16.273438 -45.808594 L 14.832031 -45.742188 L 14.179688 -45.742188 L 13.65625 -45.808594 L 13.199219 -45.808594 L 12.417969 -45.742188 L 11.957031 -45.808594 L 11.566406 -45.742188 L 10.457031 -45.742188 L 9.933594 -45.351562 L 9.867188 -44.960938 L 9.671875 -44.566406 L 9.476562 -43.78125 L 9.605469 -43.324219 L 9.539062 -42.933594 L 9.476562 -42.082031 L 9.410156 -41.691406 L 9.28125 -41.300781 L 9.214844 -40.449219 L 9.082031 -39.992188 L 9.148438 -39.601562 L 8.953125 -39.144531 L 8.953125 -38.6875 L 8.757812 -38.292969 L 8.625 -37.378906 L 8.363281 -36.527344 L 8.300781 -36.070312 L 8.363281 -35.679688 L 8.300781 -35.222656 L 8.167969 -34.699219 L 7.90625 -34.308594 L 7.839844 -32.933594 L 7.644531 -32.476562 L 7.582031 -30.648438 L 7.320312 -29.667969 L 7.121094 -28.753906 L 7.1875 -28.359375 L 7.058594 -27.902344 L 6.863281 -27.378906 L 6.46875 -25.421875 L 6.207031 -25.027344 L 6.207031 -24.570312 L 6.144531 -24.113281 L 6.078125 -23.589844 L 5.882812 -23.132812 L 5.75 -22.152344 L 5.488281 -21.238281 L 5.488281 -20.257812 L 5.226562 -18.886719 L 5.097656 -18.429688 L 4.902344 -17.449219 L 4.835938 -16.992188 L 4.640625 -16.53125 L 4.445312 -15.683594 L 4.507812 -15.292969 L 4.246094 -14.507812 L 4.246094 -14.179688 L 4.117188 -13.332031 L 3.984375 -12.808594 L 3.984375 -12.351562 L 3.855469 -11.304688 L 3.59375 -10.78125 L 3.464844 -9.933594 L 3.398438 -9.019531 L 3.332031 -8.558594 L 3.203125 -8.039062 L 3.203125 -7.582031 L 3.070312 -7.121094 L 3.070312 -6.535156 L 2.875 -6.011719 L 2.808594 -4.964844 L 2.546875 -3.984375 L 2.417969 -2.941406 L 2.289062 -1.960938 L 2.15625 -1.371094 L 1.960938 -0.785156 L 2.15625 -0.195312 L 2.746094 -0.0664062 L 6.207031 -0.0664062 L 6.664062 0 L 8.363281 0 Z M 9.605469 0.0664062 "/></g></g></g><g fill="#ffffff" fill-opacity="1"><g transform="translate(114.614764, 115.929133)"><g><path d="M 30.257812 0.128906 L 31.234375 -0.0664062 L 31.695312 -1.699219 L 32.609375 -3.265625 L 32.804688 -4.117188 L 32.871094 -4.507812 L 33.195312 -5.425781 L 33.390625 -5.945312 L 33.652344 -6.796875 L 34.046875 -7.582031 L 34.175781 -8.039062 L 34.308594 -8.886719 L 34.570312 -9.34375 L 34.699219 -9.738281 L 35.027344 -10.652344 L 35.15625 -11.042969 L 35.679688 -12.417969 L 35.746094 -12.875 L 36.007812 -13.332031 L 36.203125 -14.246094 L 36.726562 -15.160156 L 36.921875 -16.074219 L 37.445312 -17.121094 L 37.707031 -17.90625 L 37.902344 -18.296875 L 38.226562 -19.148438 L 38.621094 -20.714844 L 38.6875 -21.105469 L 38.816406 -21.5 L 39.273438 -22.085938 L 39.46875 -22.804688 L 39.796875 -23.722656 L 40.253906 -24.503906 L 40.515625 -25.222656 L 40.777344 -25.679688 L 40.90625 -26.074219 L 41.105469 -26.988281 L 41.234375 -27.445312 L 41.429688 -27.902344 L 41.757812 -28.753906 L 42.019531 -29.144531 L 42.34375 -30.191406 L 42.476562 -30.582031 L 42.867188 -31.433594 L 43 -31.757812 L 43.128906 -32.347656 L 43.652344 -33.523438 L 43.71875 -33.980469 L 44.042969 -34.765625 L 44.175781 -35.222656 L 44.632812 -36.464844 L 44.761719 -36.921875 L 45.285156 -37.769531 L 45.351562 -38.164062 L 45.546875 -38.621094 L 45.808594 -39.46875 L 46.003906 -40.382812 L 46.265625 -41.167969 L 46.917969 -42.738281 L 47.117188 -43.128906 L 47.375 -43.847656 L 47.507812 -44.238281 L 47.636719 -45.351562 L 47.246094 -45.742188 L 46.59375 -45.742188 L 46.136719 -45.808594 L 45.679688 -45.742188 L 44.761719 -45.808594 L 43.390625 -45.742188 L 42.082031 -45.742188 L 40.058594 -45.808594 L 39.601562 -45.679688 L 39.144531 -45.679688 L 38.359375 -45.351562 L 38.164062 -45.023438 L 37.769531 -44.175781 L 37.640625 -43.78125 L 37.574219 -43.324219 L 37.378906 -42.867188 L 37.25 -42.410156 L 37.050781 -42.019531 L 36.726562 -41.105469 L 36.398438 -40.382812 L 36.203125 -39.664062 L 35.941406 -38.816406 L 35.484375 -37.96875 L 35.15625 -36.269531 L 34.960938 -35.484375 L 34.894531 -35.027344 L 34.4375 -34.242188 L 34.308594 -33.785156 L 34.175781 -33.390625 L 34.113281 -32.933594 L 33.851562 -32.152344 L 33.71875 -31.628906 L 33.457031 -30.777344 L 33.261719 -30.386719 L 33.066406 -29.929688 L 32.933594 -29.535156 L 32.804688 -29.078125 L 32.609375 -28.6875 L 32.414062 -27.902344 L 31.824219 -26.398438 L 31.695312 -26.007812 L 31.628906 -25.550781 L 31.105469 -23.722656 L 30.84375 -22.871094 L 30.515625 -22.085938 L 30.320312 -21.367188 L 29.996094 -21.367188 L 29.996094 -22.480469 L 29.863281 -23.394531 L 29.929688 -25.746094 L 29.796875 -27.054688 L 29.863281 -27.578125 L 29.929688 -28.035156 L 29.863281 -28.558594 L 29.996094 -28.949219 L 29.929688 -29.472656 L 29.929688 -30.777344 L 29.863281 -31.496094 L 29.996094 -32.347656 L 29.996094 -32.804688 L 29.929688 -35.222656 L 29.996094 -35.613281 L 29.929688 -36.527344 L 29.929688 -36.921875 L 29.996094 -38.292969 L 29.929688 -39.339844 L 29.929688 -41.300781 L 29.863281 -42.933594 L 29.535156 -43.390625 L 29.078125 -43.390625 L 28.621094 -43.457031 L 28.097656 -43.457031 L 27.445312 -43.390625 L 26.660156 -43.457031 L 24.570312 -43.457031 L 23.917969 -43.128906 L 23.460938 -42.28125 L 23.265625 -41.886719 L 22.871094 -40.710938 L 22.742188 -40.1875 L 22.347656 -39.339844 L 21.890625 -38.03125 L 21.761719 -37.574219 L 21.105469 -35.941406 L 20.714844 -35.027344 L 20.519531 -34.308594 L 20.324219 -33.914062 L 19.996094 -33.132812 L 19.800781 -32.804688 L 19.539062 -32.019531 L 18.949219 -30.84375 L 18.820312 -30.386719 L 18.363281 -29.210938 L 18.230469 -28.425781 L 17.316406 -26.859375 L 17.25 -26.464844 L 16.792969 -25.617188 L 16.597656 -24.832031 L 16.207031 -23.984375 L 16.074219 -23.523438 L 15.683594 -22.675781 L 15.488281 -22.285156 L 15.09375 -21.566406 L 14.832031 -21.566406 L 14.769531 -22.21875 L 14.898438 -23.066406 L 14.898438 -23.984375 L 14.964844 -24.503906 L 14.898438 -24.960938 L 15.03125 -25.878906 L 15.09375 -27.316406 L 15.03125 -27.707031 L 15.09375 -28.164062 L 15.09375 -28.558594 L 15.226562 -29.015625 L 15.226562 -29.40625 L 15.292969 -29.863281 L 15.355469 -30.777344 L 15.421875 -31.171875 L 15.488281 -31.628906 L 15.355469 -32.542969 L 15.355469 -33.390625 L 15.550781 -34.308594 L 15.617188 -34.765625 L 15.617188 -35.941406 L 15.683594 -37.445312 L 15.8125 -37.835938 L 15.878906 -40.253906 L 15.8125 -40.710938 L 15.8125 -41.105469 L 16.074219 -43.128906 L 16.011719 -43.585938 L 16.011719 -44.175781 L 15.878906 -45.285156 L 15.160156 -45.679688 L 14.703125 -45.679688 L 13.984375 -45.613281 L 13.136719 -45.742188 L 11.828125 -45.742188 L 11.304688 -45.679688 L 10.976562 -45.679688 L 10.324219 -45.742188 L 9.605469 -45.679688 L 7.90625 -45.679688 L 7.121094 -45.480469 L 6.992188 -44.566406 L 6.992188 -43.980469 L 6.925781 -43.585938 L 6.925781 -43.128906 L 6.992188 -42.34375 L 6.925781 -41.886719 L 6.925781 -41.496094 L 6.796875 -40.1875 L 6.796875 -39.730469 L 6.863281 -38.359375 L 6.796875 -37.378906 L 6.796875 -36.59375 L 6.730469 -35.941406 L 6.664062 -35.484375 L 6.535156 -34.242188 L 6.601562 -33.390625 L 6.535156 -32.476562 L 6.46875 -30.582031 L 6.535156 -30.125 L 6.601562 -29.144531 L 6.46875 -28.6875 L 6.535156 -28.164062 L 6.46875 -27.25 L 6.535156 -26.859375 L 6.46875 -26.007812 L 6.535156 -25.550781 L 6.46875 -24.765625 L 6.402344 -24.308594 L 6.402344 -23.199219 L 6.46875 -22.742188 L 6.339844 -22.21875 L 6.339844 -21.761719 L 6.207031 -20.910156 L 6.144531 -20.324219 L 6.273438 -19.472656 L 6.144531 -18.296875 L 6.144531 -17.773438 L 6.078125 -16.859375 L 6.078125 -13.265625 L 6.011719 -12.351562 L 5.945312 -11.957031 L 5.945312 -10.652344 L 6.011719 -9.738281 L 5.945312 -9.28125 L 6.011719 -8.820312 L 5.945312 -7.90625 L 5.882812 -7.515625 L 5.882812 -6.863281 L 5.816406 -6.144531 L 5.75 -5.683594 L 5.816406 -5.097656 L 5.75 -4.640625 L 5.816406 -4.246094 L 5.75 -3.464844 L 5.816406 -3.007812 L 5.816406 -2.417969 L 5.75 -1.765625 L 5.882812 -1.308594 L 5.816406 -0.785156 L 6.207031 -0.195312 L 6.664062 -0.128906 L 7.320312 -0.128906 L 7.777344 -0.195312 L 8.429688 -0.195312 L 8.820312 -0.261719 L 9.476562 0 L 10.257812 -0.195312 L 11.761719 -0.128906 L 12.089844 -0.261719 L 12.675781 -0.0664062 L 13.070312 -0.0664062 L 13.984375 -0.390625 L 14.113281 -0.71875 L 14.3125 -1.109375 L 14.769531 -1.828125 L 14.898438 -2.546875 L 15.09375 -3.136719 L 15.355469 -3.789062 L 15.550781 -4.246094 L 15.75 -5.164062 L 16.011719 -5.554688 L 16.207031 -6.011719 L 16.402344 -6.796875 L 16.53125 -7.1875 L 16.925781 -7.972656 L 17.316406 -8.820312 L 17.511719 -9.539062 L 17.578125 -9.933594 L 17.96875 -10.71875 L 18.035156 -11.175781 L 19.210938 -13.789062 L 19.472656 -14.246094 L 21.042969 -18.035156 L 21.433594 -18.886719 L 21.890625 -19.996094 L 22.21875 -21.171875 L 22.480469 -21.566406 L 22.609375 -22.023438 L 23.003906 -22.675781 L 23.328125 -22.675781 L 23.460938 -21.5 L 23.394531 -20.324219 L 23.460938 -19.148438 L 23.523438 -18.035156 L 23.265625 -16.402344 L 23.265625 -15.945312 L 23.394531 -14.769531 L 23.523438 -14.179688 L 23.65625 -13.332031 L 23.523438 -12.351562 L 23.394531 -11.632812 L 23.589844 -10.847656 L 23.523438 -9.933594 L 23.589844 -9.476562 L 23.460938 -9.082031 L 23.65625 -8.625 L 23.65625 -7.320312 L 23.722656 -6.863281 L 23.785156 -5.945312 L 23.722656 -5.554688 L 23.65625 -4.703125 L 23.851562 -4.183594 L 23.984375 -3.136719 L 24.113281 -2.222656 L 24.046875 -1.828125 L 24.113281 -0.914062 L 24.308594 -0.195312 L 24.636719 0.0664062 L 29.277344 0.0664062 Z M 30.257812 0.128906 "/></g></g></g></svg>